<svg width="28" height="28" viewBox="0 0 28 28" fill="none" xmlns="http://www.w3.org/2000/svg">
<g clip-path="url(#clip0_0_674)">
<path d="M7.12499 0.249878C6.58254 0.249878 6.14282 0.689598 6.14282 1.23204V3.1963H8.10709V1.23204C8.10709 0.689598 7.66737 0.249878 7.12499 0.249878Z" fill="white"/>
<path d="M20.875 0.249878C20.3325 0.249878 19.8928 0.689598 19.8928 1.23204V3.1963H21.8571V1.23204C21.8571 0.689598 21.4174 0.249878 20.875 0.249878Z" fill="white"/>
<path d="M24.8036 3.19629H21.8571V7.12488C21.8571 7.66732 21.4174 8.10704 20.875 8.10704C20.3325 8.10704 19.8928 7.66732 19.8928 7.12488V3.19629H8.10712V7.12488C8.10712 7.66732 7.6674 8.10704 7.12496 8.10704C6.58252 8.10704 6.1428 7.66732 6.1428 7.12488V3.19629H3.19643C1.56916 3.19629 0.25 4.51545 0.25 6.14272V24.8034C0.25 26.4307 1.56916 27.7499 3.19643 27.7499H24.8036C26.4308 27.7499 27.75 26.4307 27.75 24.8034V6.14272C27.75 4.51545 26.4308 3.19629 24.8036 3.19629ZM25.7857 24.8034C25.7857 25.3459 25.346 25.7856 24.8035 25.7856H3.19643C2.65399 25.7856 2.21427 25.3459 2.21427 24.8034V12.0356H25.7857V24.8034Z" fill="white"/>
<path d="M8.10708 13.9999H6.14281C5.60036 13.9999 5.16064 14.4396 5.16064 14.982C5.16064 15.5245 5.60036 15.9642 6.14281 15.9642H8.10708C8.64952 15.9642 9.08924 15.5245 9.08924 14.982C9.08924 14.4396 8.64952 13.9999 8.10708 13.9999Z" fill="white"/>
<path d="M14.9821 13.9999H13.0178C12.4754 13.9999 12.0356 14.4396 12.0356 14.982C12.0356 15.5245 12.4754 15.9642 13.0178 15.9642H14.9821C15.5245 15.9642 15.9642 15.5245 15.9642 14.982C15.9642 14.4396 15.5245 13.9999 14.9821 13.9999Z" fill="white"/>
<path d="M21.8571 13.9999H19.8928C19.3504 13.9999 18.9106 14.4396 18.9106 14.982C18.9106 15.5245 19.3504 15.9642 19.8928 15.9642H21.8571C22.3995 15.9642 22.8392 15.5245 22.8392 14.982C22.8392 14.4396 22.3995 13.9999 21.8571 13.9999Z" fill="white"/>
<path d="M8.10708 17.9285H6.14281C5.60036 17.9285 5.16064 18.3682 5.16064 18.9106C5.16064 19.4531 5.60036 19.8928 6.14281 19.8928H8.10708C8.64952 19.8928 9.08924 19.4531 9.08924 18.9106C9.08924 18.3682 8.64952 17.9285 8.10708 17.9285Z" fill="white"/>
<path d="M14.9821 17.9285H13.0178C12.4754 17.9285 12.0356 18.3682 12.0356 18.9106C12.0356 19.4531 12.4754 19.8928 13.0178 19.8928H14.9821C15.5245 19.8928 15.9642 19.4531 15.9642 18.9106C15.9642 18.3682 15.5245 17.9285 14.9821 17.9285Z" fill="white"/>
<path d="M21.8571 17.9285H19.8928C19.3504 17.9285 18.9106 18.3682 18.9106 18.9106C18.9106 19.4531 19.3504 19.8928 19.8928 19.8928H21.8571C22.3995 19.8928 22.8392 19.4531 22.8392 18.9106C22.8392 18.3682 22.3995 17.9285 21.8571 17.9285Z" fill="white"/>
<path d="M8.10708 21.8571H6.14281C5.60036 21.8571 5.16064 22.2968 5.16064 22.8392C5.16064 23.3817 5.60036 23.8213 6.14281 23.8213H8.10708C8.64952 23.8213 9.08924 23.3816 9.08924 22.8392C9.08924 22.2967 8.64952 21.8571 8.10708 21.8571Z" fill="white"/>
<path d="M14.9821 21.8571H13.0178C12.4754 21.8571 12.0356 22.2968 12.0356 22.8392C12.0356 23.3817 12.4754 23.8214 13.0178 23.8214H14.9821C15.5245 23.8214 15.9642 23.3817 15.9642 22.8392C15.9642 22.2968 15.5245 21.8571 14.9821 21.8571Z" fill="white"/>
<path d="M21.8571 21.8571H19.8928C19.3504 21.8571 18.9106 22.2968 18.9106 22.8392C18.9106 23.3817 19.3504 23.8214 19.8928 23.8214H21.8571C22.3995 23.8214 22.8392 23.3817 22.8392 22.8392C22.8392 22.2968 22.3995 21.8571 21.8571 21.8571Z" fill="white"/>
</g>
<defs>
<clipPath id="clip0_0_674">
<rect width="27.5" height="27.5" fill="white" transform="translate(0.25 0.249878)"/>
</clipPath>
</defs>
</svg>
