<svg width="162" height="51" viewBox="0 0 162 51" fill="none" xmlns="http://www.w3.org/2000/svg">
<g clip-path="url(#clip0_0_622)">
<path d="M85.1357 13.5348C85.1357 15.3343 83.674 16.7834 81.8601 16.7834C80.0461 16.7834 78.5855 15.3343 78.5855 13.5348C78.5855 11.7352 79.9963 10.2862 81.8601 10.2862C83.7254 10.3361 85.1357 11.7857 85.1357 13.5348ZM71.6326 20.0829V20.8828C71.6326 20.8828 70.0714 18.8825 66.7459 18.8825C61.2547 18.8825 56.9715 23.0314 56.9715 28.7791C56.9715 34.4774 61.2044 38.6757 66.7459 38.6757C70.1217 38.6757 71.6326 36.6265 71.6326 36.6265V37.4758C71.6326 37.8758 71.9356 38.1749 72.3383 38.1749H76.4187V19.3809H72.3383C71.9356 19.3824 71.6326 19.7329 71.6326 20.0829ZM71.6326 32.1281C70.8777 33.2281 69.3657 34.1778 67.5523 34.1778C64.328 34.1778 61.8587 32.1785 61.8587 28.7791C61.8587 25.3802 64.328 23.3809 67.5523 23.3809C69.3159 23.3809 70.928 24.3806 71.6326 25.4302V32.1281ZM79.4421 19.3824H84.2785V38.1764H79.4421V19.3824ZM151.691 18.882C148.365 18.882 146.803 20.8823 146.803 20.8823V10.3361H141.967V38.1764H146.048C146.451 38.1764 146.753 37.8264 146.753 37.4763V36.627C146.753 36.627 148.315 38.6762 151.64 38.6762C157.132 38.6762 161.414 34.4789 161.414 28.7806C161.414 23.0823 157.132 18.882 151.691 18.882ZM150.885 34.1274C149.02 34.1274 147.559 33.1787 146.803 32.0781V25.3802C147.559 24.3806 149.171 23.331 150.885 23.331C154.109 23.331 156.578 25.3303 156.578 28.7292C156.578 32.1281 154.109 34.1274 150.885 34.1274ZM139.448 27.0305V38.2263H134.611V27.5797C134.611 24.4814 133.603 23.2311 130.884 23.2311C129.424 23.2311 127.912 23.9811 126.953 25.0811V38.1769H122.117V19.3829H125.945C126.348 19.3829 126.651 19.7329 126.651 20.0829V20.8828C128.062 19.4328 129.925 18.8825 131.789 18.8825C133.906 18.8825 135.669 19.4832 137.08 20.6826C138.792 22.0822 139.448 23.8813 139.448 27.0305ZM110.377 18.882C107.052 18.882 105.49 20.8823 105.49 20.8823V10.3361H100.653V38.1764H104.734C105.137 38.1764 105.439 37.8264 105.439 37.4763V36.627C105.439 36.627 107.002 38.6762 110.326 38.6762C115.818 38.6762 120.101 34.4789 120.101 28.7806C120.151 23.0818 115.869 18.882 110.377 18.882ZM109.57 34.1274C107.706 34.1274 106.246 33.1787 105.49 32.0781V25.3802C106.246 24.3806 107.858 23.331 109.57 23.331C112.796 23.331 115.264 25.3303 115.264 28.7292C115.264 32.1281 112.796 34.1274 109.57 34.1274ZM96.4714 18.882C97.932 18.882 98.688 19.1327 98.688 19.1327V23.5807C98.688 23.5807 94.6574 22.231 92.1388 25.0806V38.2258H87.3014V19.3824H91.3829C91.786 19.3824 92.0875 19.7324 92.0875 20.0824V20.8823C92.9955 19.8322 94.9604 18.882 96.4714 18.882ZM46.2408 36.4767C45.9891 35.877 45.7369 35.2274 45.4853 34.6771C45.0816 33.7779 44.6785 32.9275 44.3267 32.1281L44.2763 32.0781C40.7994 24.5803 37.0718 16.9836 33.1414 9.48677L32.9904 9.18617C32.577 8.40846 32.1742 7.62529 31.782 6.83686C31.2776 5.93658 30.7743 4.98786 29.968 4.08758C28.3559 2.08829 26.0381 0.988281 23.5698 0.988281C21.0502 0.988281 18.7833 2.0883 17.1213 3.98722C16.3653 4.8865 15.8107 5.83622 15.3074 6.7365C14.9141 7.52444 14.5113 8.30759 14.0989 9.08581L13.9474 9.3864C10.0678 16.8832 6.28941 24.4805 2.81299 31.9778L2.76217 32.0772C2.40984 32.8781 2.00618 33.7274 1.60302 34.6262C1.35136 35.1764 1.0997 35.7761 0.848045 36.4258C0.192725 38.2748 -0.00911489 40.0244 0.243551 41.8244C0.797704 45.5734 3.31631 48.7211 6.79323 50.1217C8.10336 50.672 9.46383 50.9216 10.8741 50.9216C11.2773 50.9216 11.7806 50.8717 12.1843 50.8213C13.8472 50.6215 15.56 50.0723 17.223 49.1225C19.2886 47.9726 21.2535 46.3238 23.4702 43.9246C25.6868 46.3238 27.7021 47.9726 29.7174 49.1225C31.3808 50.0723 33.0931 50.6215 34.7556 50.8213C35.1587 50.8722 35.663 50.9216 36.0662 50.9216C37.477 50.9216 38.8873 50.672 40.1466 50.1217C43.6739 48.7211 46.1421 45.5234 46.6968 41.8244C47.0969 40.0753 46.8956 38.3267 46.2408 36.4767ZM23.519 39.0757C20.7981 35.6768 19.0344 32.4781 18.4304 29.7798C18.1788 28.6298 18.128 27.6302 18.2794 26.7304C18.3796 25.9305 18.6826 25.2304 19.0858 24.6307C20.0431 23.2821 21.6552 22.4317 23.5195 22.4317C25.3843 22.4317 27.0467 23.2316 27.9537 24.6307C28.3569 25.2304 28.6589 25.931 28.7605 26.7304C28.911 27.6307 28.8607 28.6798 28.609 29.7798C28.0026 32.4282 26.2389 35.6273 23.519 39.0757ZM43.6205 41.425C43.2682 44.024 41.5045 46.2739 39.0363 47.2735C37.8273 47.7729 36.5167 47.9232 35.2075 47.7729C33.9482 47.6226 32.6879 47.2226 31.3788 46.4736C29.5648 45.473 27.7514 43.9246 25.6349 41.6247C28.9599 37.5767 30.9751 33.8772 31.7311 30.5792C32.084 29.0293 32.1348 27.6302 31.9828 26.3299C31.782 25.0806 31.328 23.9307 30.6228 22.931C29.06 20.6811 26.4397 19.3824 23.5185 19.3824C20.5972 19.3824 17.977 20.732 16.4152 22.931C15.71 23.9307 15.256 25.0806 15.0547 26.3299C14.8534 27.6302 14.9032 29.0792 15.3063 30.5792C16.0618 33.8772 18.1275 37.6261 21.402 41.6747C19.3364 43.974 17.4721 45.5239 15.6582 46.5236C14.348 47.2736 13.0892 47.6735 11.8299 47.8228C10.47 47.9731 9.15933 47.7729 8.00069 47.3235C5.53242 46.3238 3.7688 44.0739 3.41647 41.4749C3.26548 40.2256 3.36564 38.9763 3.86996 37.5767C4.02046 37.0764 4.27312 36.5771 4.52478 35.9774C4.8776 35.1775 5.27976 34.3271 5.68342 33.4778L5.73426 33.3784C9.21017 25.9305 12.9382 18.3333 16.8178 10.9363L16.9688 10.6357C17.3725 9.88673 17.7756 9.08681 18.1783 8.33683C18.5814 7.53691 19.0344 6.78692 19.5891 6.13681C20.6471 4.93843 22.0573 4.28781 23.6196 4.28781C25.1819 4.28781 26.5923 4.93843 27.6502 6.13681C28.2049 6.78842 28.6579 7.53841 29.061 8.33683C29.4647 9.08681 29.8678 9.88673 30.27 10.6357L30.4215 10.9363C34.2419 18.364 37.9205 25.8627 41.4552 33.4283V33.4783C41.8589 34.2792 42.2112 35.178 42.6144 35.9789C42.866 36.5776 43.1182 37.0769 43.2692 37.5772C43.6713 38.8755 43.8223 40.1258 43.6205 41.425Z" fill="#ABABAB"/>
</g>
<defs>
<clipPath id="clip0_0_622">
<rect width="161.323" height="49.9333" fill="white" transform="translate(0.112549 0.988831)"/>
</clipPath>
</defs>
</svg>
