<svg width="154" height="47" viewBox="0 0 154 47" fill="none" xmlns="http://www.w3.org/2000/svg">
<g clip-path="url(#clip0_0_626)">
<path fill-rule="evenodd" clip-rule="evenodd" d="M95.4825 36.5584C86.5878 43.1124 73.6502 46.6042 62.4915 46.6042C46.8585 46.6042 32.8427 40.8561 22.1692 31.2938C21.3606 30.5417 22.0614 29.521 23.0856 30.112C34.5678 36.7733 48.7452 40.7487 63.4079 40.7487C73.2728 40.7487 84.162 38.7073 94.1887 34.4633C95.6981 33.8724 96.938 35.484 95.4825 36.5584Z" fill="#ABABAB"/>
<path fill-rule="evenodd" clip-rule="evenodd" d="M99.2021 32.3145C98.07 30.8641 91.6551 31.6162 88.7981 31.9922C87.9356 32.0996 87.7739 31.3476 88.5825 30.8103C93.7036 27.2111 102.059 28.2855 103.029 29.4673C104 30.6492 102.76 39.0296 97.9622 43.0049C97.2075 43.5959 96.5067 43.2735 96.8302 42.4677C97.9083 39.7817 100.334 33.8187 99.2021 32.3145Z" fill="#ABABAB"/>
<path fill-rule="evenodd" clip-rule="evenodd" d="M88.9598 5.56164V2.0698C88.9598 1.53259 89.3372 1.21026 89.8223 1.21026H105.455C105.94 1.21026 106.372 1.58631 106.372 2.0698V5.02443C106.372 5.50792 105.94 6.15257 105.186 7.22698L97.0998 18.7232C100.119 18.6695 103.299 19.0992 105.994 20.6034C106.587 20.9257 106.749 21.4629 106.803 21.9464V25.6532C106.803 26.1904 106.264 26.7813 105.671 26.459C100.873 23.9341 94.4583 23.6655 89.1755 26.5127C88.6364 26.7813 88.0434 26.2441 88.0434 25.7069V22.1613C88.0434 21.6241 88.0434 20.6571 88.6364 19.7976L98.0162 6.42117H89.8763C89.3911 6.42117 88.9598 6.04512 88.9598 5.56164ZM31.9803 27.2111H27.2365C26.8053 27.1573 26.4279 26.835 26.374 26.4052V2.12352C26.374 1.64004 26.8053 1.26399 27.2904 1.26399H31.7108C32.1959 1.26399 32.5194 1.64003 32.5733 2.0698V5.23931H32.6811C33.8132 2.17724 36.0233 0.726781 38.9343 0.726781C41.8992 0.726781 43.7859 2.17724 45.0797 5.23931C46.2117 2.17724 48.8532 0.726781 51.6563 0.726781C53.6509 0.726781 55.8071 1.53259 57.1548 3.41281C58.6642 5.4542 58.3408 8.40884 58.3408 11.0412V26.4052C58.3408 26.8887 57.9095 27.2648 57.4244 27.2648H52.7345C52.2493 27.2111 51.8719 26.835 51.8719 26.4052V13.5123C51.8719 12.4916 51.9798 9.913 51.7641 8.94603C51.3868 7.33441 50.3625 6.85093 48.961 6.85093C47.8289 6.85093 46.5891 7.60303 46.1039 8.8386C45.6187 10.0742 45.6727 12.1156 45.6727 13.5123V26.4052C45.6727 26.8887 45.2414 27.2648 44.7562 27.2648H40.0124C39.5273 27.2111 39.1499 26.835 39.1499 26.4052V13.5123C39.1499 10.8263 39.5812 6.79721 36.239 6.79721C32.8428 6.79721 32.9506 10.6651 32.9506 13.5123V26.4052C32.8967 26.835 32.5194 27.2111 31.9803 27.2111ZM119.848 0.726781C126.91 0.726781 130.738 6.74349 130.738 14.4255C130.738 21.839 126.533 27.7483 119.848 27.7483C112.948 27.7483 109.175 21.7316 109.175 14.2107C109.121 6.63605 112.948 0.726781 119.848 0.726781ZM119.848 5.72279C116.345 5.72279 116.129 10.5039 116.129 13.4586C116.129 16.4132 116.075 22.7522 119.795 22.7522C123.46 22.7522 123.676 17.6488 123.676 14.533C123.676 12.4916 123.568 10.0205 122.975 8.08652C122.436 6.36746 121.358 5.72279 119.848 5.72279ZM139.848 27.2111H135.104C134.619 27.1573 134.242 26.7813 134.242 26.3515V2.01607C134.295 1.58631 134.673 1.21026 135.158 1.21026H139.578C140.01 1.21026 140.333 1.5326 140.441 1.90864V5.61536H140.549C141.896 2.28468 143.729 0.726781 147.017 0.726781C149.12 0.726781 151.222 1.47886 152.57 3.57397C153.81 5.50791 153.81 8.78487 153.81 11.1486V26.459C153.756 26.8887 153.378 27.2111 152.893 27.2111H148.15C147.718 27.1573 147.341 26.835 147.287 26.459V13.2437C147.287 10.5577 147.61 6.68978 144.322 6.68978C143.19 6.68978 142.112 7.44187 141.573 8.62372C140.926 10.1279 140.818 11.5783 140.818 13.2437V26.3515C140.764 26.835 140.333 27.2111 139.848 27.2111ZM76.5074 15.6074C76.5074 17.4339 76.5613 18.9918 75.6449 20.6571C74.8902 22.0002 73.7042 22.806 72.3565 22.806C70.5237 22.806 69.4456 21.4092 69.4456 19.3678C69.4456 15.3388 73.0573 14.5867 76.5074 14.5867V15.6074ZM81.3051 27.1573C80.9816 27.4259 80.5504 27.4797 80.173 27.2648C78.6097 25.9755 78.2863 25.3308 77.4238 24.0953C74.8362 26.7276 72.9495 27.5334 69.6073 27.5334C65.6182 27.5334 62.4916 25.0622 62.4916 20.1737C62.4916 16.3058 64.594 13.7272 67.5588 12.4379C70.1464 11.3097 73.7581 11.0949 76.5074 10.7725V10.1816C76.5074 9.05348 76.6152 7.71047 75.9144 6.7435C75.3214 5.88397 74.2433 5.50792 73.273 5.50792C71.4401 5.50792 69.8229 6.42118 69.4456 8.35512C69.3378 8.78488 69.0682 9.21464 68.637 9.21464L64.0549 8.73115C63.6775 8.62371 63.2463 8.35512 63.3541 7.76419C64.4322 2.17724 69.4456 0.511902 73.9737 0.511902C76.2917 0.511902 79.3105 1.10283 81.1434 2.87561C83.4613 5.02443 83.2457 7.92535 83.2457 11.0412V18.4009C83.2457 20.6034 84.1621 21.5704 85.0246 22.806C85.3481 23.2357 85.402 23.7729 85.0246 24.0415C84.0004 24.8473 82.2754 26.3515 81.3051 27.1573ZM14.245 15.6074C14.245 17.4339 14.2989 18.9918 13.3825 20.6571C12.6278 22.0002 11.4418 22.806 10.0941 22.806C8.26131 22.806 7.18318 21.4092 7.18318 19.3678C7.18318 15.3388 10.7949 14.5867 14.245 14.5867V15.6074ZM18.9888 27.1573C18.6653 27.4259 18.2341 27.4797 17.8567 27.2648C16.2934 25.9755 15.97 25.3308 15.1075 24.0953C12.52 26.7276 10.6332 27.5334 7.29099 27.5334C3.30189 27.5334 0.175293 25.0622 0.175293 20.1737C0.175293 16.3058 2.27766 13.7272 5.24253 12.4379C7.83006 11.3097 11.4418 11.0949 14.1911 10.7725V10.1816C14.1911 9.05348 14.2989 7.71047 13.5981 6.7435C13.0051 5.88397 11.927 5.50792 10.9567 5.50792C9.12383 5.50792 7.50662 6.42118 7.12927 8.35512C7.02146 8.78488 6.75192 9.21464 6.32067 9.21464L1.73859 8.73115C1.36124 8.62371 0.929992 8.35512 1.03781 7.76419C2.11594 2.17724 7.12928 0.511902 11.6574 0.511902C13.9754 0.511902 16.9942 1.10283 18.8271 2.87561C21.1451 5.02443 20.9294 7.92535 20.9294 11.0412V18.4009C20.9294 20.6034 21.8458 21.5704 22.7083 22.806C23.0318 23.2357 23.0857 23.7729 22.7083 24.0415C21.6841 24.8473 19.9591 26.3515 18.9888 27.1573Z" fill="#ABABAB"/>
</g>
<defs>
<clipPath id="clip0_0_626">
<rect width="153.641" height="46.0923" fill="white" transform="matrix(-1 0 0 -1 153.813 46.6042)"/>
</clipPath>
</defs>
</svg>
