<svg width="194" height="40" viewBox="0 0 194 40" fill="none" xmlns="http://www.w3.org/2000/svg">
<path d="M100.101 19.4124C98.5045 19.4124 97.3536 19.9378 96.1865 20.4732V32.5868C97.3044 32.6936 97.9452 32.6937 99.0057 32.6937C102.838 32.6937 103.363 30.9322 103.363 28.4728V22.6873C103.363 20.8711 102.763 19.4124 100.101 19.4124ZM74.6492 18.7513C71.9902 18.7513 71.3834 20.2163 71.3834 22.0307V23.0502H77.9115V22.0307C77.9115 20.2163 77.3047 18.7513 74.6492 18.7513ZM25.3437 31.3598C25.3437 32.7951 26.0186 33.5407 27.5078 33.5407C29.1054 33.5407 30.0514 33.0179 31.2176 32.4808V29.6073H27.7244C26.0705 29.6073 25.3437 29.9163 25.3437 31.3598ZM124.86 19.4124C122.196 19.4124 121.273 20.8711 121.273 22.6873V29.3154C121.273 31.1361 122.196 32.5993 124.86 32.5993C127.516 32.5993 128.446 31.1361 128.446 29.3154V22.6873C128.445 20.8711 127.515 19.4124 124.86 19.4124ZM12.2911 38.7918H4.4616V19.7726H0.549561V13.219H4.4625V9.28299C4.4625 3.93581 6.67046 0.756958 12.9462 0.756958H18.1712V7.31227H14.9053C12.462 7.31227 12.3009 8.22846 12.3009 9.9378L12.2911 13.2182H18.207L17.5152 19.7717H12.2911V38.7918ZM39.0488 38.8412H32.5234L32.2415 37.1848C29.262 38.8412 26.603 39.1097 24.8488 39.1097C20.0632 39.1097 17.5161 35.9012 17.5161 31.464C17.5161 26.2291 20.4884 24.3607 25.8055 24.3607H31.2176V23.229C31.2176 20.5567 30.9124 19.7726 26.8178 19.7726H20.1232L20.7774 13.219H28.095C37.079 13.219 39.0488 16.0673 39.0488 23.282V38.8412ZM61.2386 20.2531C57.178 19.5543 56.0118 19.4007 54.058 19.4007C50.5487 19.4007 49.4881 20.1777 49.4881 23.1688V28.8268C49.4881 31.8179 50.5487 32.5984 54.058 32.5984C56.0118 32.5984 57.178 32.4421 61.2386 31.7406V38.1334C57.6818 38.9337 55.3647 39.1439 53.4064 39.1439C45.0006 39.1439 41.6596 34.7075 41.6596 28.2986V23.7077C41.6596 17.2934 45.0006 12.849 53.4064 12.849C55.3647 12.849 57.6818 13.0601 61.2386 13.864V20.2531ZM85.7401 28.2986H71.3825V28.8268C71.3825 31.8179 72.444 32.5984 75.9524 32.5984C79.1063 32.5984 81.0315 32.4421 85.0849 31.7406V38.1334C81.1756 38.9337 79.1385 39.1439 75.3035 39.1439C66.8968 39.1439 63.5539 34.7075 63.5539 28.2986V23.0493C63.5539 17.4416 66.034 12.849 74.6483 12.849C83.2627 12.849 85.7401 17.3886 85.7401 23.0493V28.2986ZM111.191 28.4199C111.191 34.6141 109.427 39.1322 98.7408 39.1322C94.8816 39.1322 92.6181 38.7918 88.3588 38.1343V2.72589L96.1856 1.41536V13.8011C97.8771 13.1705 100.066 12.8499 102.059 12.8499C109.886 12.8499 111.19 16.3718 111.19 22.0316V28.4199H111.191ZM136.281 28.5546C136.281 33.8982 134.083 39.081 124.886 39.081C115.684 39.081 113.445 33.8982 113.445 28.5546V23.3951C113.445 18.0488 115.684 12.8651 124.886 12.8651C134.083 12.8651 136.281 18.0488 136.281 23.3951V28.5546ZM161.353 28.5546C161.353 33.8982 159.152 39.081 149.957 39.081C140.756 39.081 138.516 33.8982 138.516 28.5546V23.3951C138.516 18.0488 140.756 12.8651 149.957 12.8651C159.152 12.8651 161.353 18.0488 161.353 23.3951V28.5546ZM187.084 38.7918H178.6L171.425 26.7707V38.7918H163.595V2.72499L171.425 1.41447V24.6329L178.6 13.219H187.084L179.25 25.6749L187.084 38.7918ZM149.93 19.4124C147.271 19.4124 146.349 20.8711 146.349 22.6873V29.3154C146.349 31.1361 147.271 32.5993 149.93 32.5993C152.586 32.5993 153.526 31.1361 153.526 29.3154V22.6873C153.526 20.8711 152.586 19.4124 149.93 19.4124ZM191.552 34.306C192.871 34.306 193.92 35.3848 193.92 36.7321C193.92 38.1001 192.87 39.1672 191.542 39.1672C190.221 39.1672 189.15 38.1001 189.15 36.7321C189.15 35.3848 190.221 34.306 191.542 34.306H191.552ZM191.542 34.6832C190.48 34.6832 189.611 35.6003 189.611 36.7321C189.611 37.8845 190.481 38.79 191.552 38.79C192.624 38.8007 193.481 37.8845 193.481 36.7429C193.481 35.6012 192.624 34.6832 191.552 34.6832H191.542ZM191.092 38.1441H190.663V35.4368C190.888 35.4054 191.103 35.374 191.425 35.374C191.833 35.374 192.1 35.4602 192.264 35.5779C192.422 35.6973 192.507 35.8797 192.507 36.1375C192.507 36.495 192.273 36.7096 191.984 36.7968V36.8174C192.219 36.8615 192.379 37.0752 192.434 37.4731C192.496 37.8944 192.562 38.0552 192.604 38.1432H192.154C192.09 38.0552 192.025 37.8082 191.971 37.4516C191.908 37.1076 191.735 36.9782 191.391 36.9782H191.093V38.1441H191.092ZM191.092 36.6459H191.404C191.756 36.6459 192.056 36.5156 192.056 36.1806C192.056 35.9435 191.886 35.7072 191.404 35.7072C191.263 35.7072 191.166 35.718 191.092 35.7279V36.6459Z" fill="#ABABAB"/>
</svg>
