<svg width="169" height="56" viewBox="0 0 169 56" fill="none" xmlns="http://www.w3.org/2000/svg">
<g clip-path="url(#clip0_0_613)">
<path d="M20.7271 0.994812H22.2238C27.4197 1.10728 32.5309 3.18799 36.202 6.87141C34.8465 8.24917 33.4628 9.5707 32.1356 10.9485C30.0742 9.0927 27.5891 7.6587 24.8782 7.15258C20.8683 6.30905 16.5478 7.06823 13.1874 9.34576C9.51632 11.7358 7.03131 15.7847 6.49477 20.1148C5.90175 24.3887 7.11602 28.8875 9.91166 32.2054C12.5943 35.439 16.689 37.4634 20.9248 37.604C24.8782 37.829 29.0011 36.6199 31.8814 33.8644C34.1405 31.9243 35.1854 28.9719 35.5243 26.1039C30.8366 26.1039 26.149 26.132 21.4613 26.1039V20.3117H41.2002C42.2168 26.5257 40.7484 33.527 36.0043 37.9696C32.8416 41.1187 28.4646 42.9745 24.0028 43.34C19.6823 43.7618 15.2206 42.9464 11.3801 40.8657C6.77716 38.4194 3.10611 34.2861 1.29883 29.4218C-0.395498 24.9511 -0.423737 19.8899 1.15764 15.3911C2.59781 11.2859 5.36522 7.6587 8.92331 5.12811C12.3402 2.62564 16.4913 1.24787 20.7271 0.994812Z" fill="#ABABAB"/>
<path d="M133.965 2.45581H140.008V42.6078C138.003 42.6078 135.97 42.636 133.965 42.5797C133.993 29.2238 133.965 15.8398 133.965 2.45581Z" fill="#ABABAB"/>
<path d="M54.6422 16.3741C58.3697 15.6711 62.4079 16.4584 65.4859 18.6797C68.2815 20.6479 70.23 23.7409 70.823 27.115C71.5855 31.0234 70.6253 35.2972 68.0839 38.3902C65.3447 41.8487 60.8547 43.7044 56.4777 43.4232C52.4678 43.1983 48.5708 41.202 46.1988 37.9403C43.5161 34.3412 42.8666 29.3925 44.335 25.1749C45.8034 20.6479 49.9545 17.1895 54.6422 16.3741ZM55.4893 21.7164C53.9644 22.1101 52.5525 22.9817 51.5359 24.2189C48.7967 27.4805 48.9662 32.7948 51.9877 35.8315C53.7103 37.5748 56.3083 38.3902 58.7086 37.9122C60.9394 37.5185 62.8879 36.0283 63.961 34.0601C65.8247 30.7141 65.2882 26.1028 62.4361 23.4878C60.6006 21.8008 57.9179 21.0978 55.4893 21.7164Z" fill="#ABABAB"/>
<path d="M84.5752 16.3741C88.8392 15.5586 93.4986 16.7396 96.6896 19.7201C101.886 24.3595 102.45 33.0478 98.0168 38.3902C95.3342 41.7643 90.9854 43.6201 86.6931 43.4232C82.5985 43.3108 78.5603 41.2863 76.1318 37.9403C73.3926 34.2569 72.7996 29.1957 74.3527 24.8937C75.9059 20.5073 79.9723 17.1613 84.5752 16.3741ZM85.4223 21.7164C83.8975 22.1101 82.4855 22.9817 81.4689 24.1908C78.758 27.3962 78.871 32.6261 81.7795 35.6909C83.5021 37.5185 86.1848 38.4183 88.6698 37.9122C90.8724 37.4904 92.8491 36.0283 93.9222 34.0601C95.7577 30.6859 95.2212 26.0746 92.3408 23.4597C90.5053 21.7726 87.8226 21.0978 85.4223 21.7164Z" fill="#ABABAB"/>
<path d="M109.962 18.0049C113.209 15.9804 117.53 15.4181 121.031 17.1614C122.133 17.6394 123.036 18.4548 123.912 19.2702C123.94 18.511 123.912 17.7237 123.94 16.9364C125.832 16.9645 127.724 16.9364 129.644 16.9645V41.7643C129.616 45.504 128.656 49.4686 125.945 52.196C122.98 55.2046 118.433 56.1324 114.339 55.5138C109.962 54.8671 106.15 51.6898 104.455 47.669C106.15 46.8536 107.929 46.2069 109.679 45.4477C110.668 47.7534 112.673 49.7216 115.186 50.1715C117.699 50.6214 120.608 50.0028 122.246 47.9221C123.997 45.7851 123.997 42.8609 123.912 40.246C122.613 41.5113 121.116 42.636 119.309 43.0577C115.384 44.1543 111.063 42.8047 108.042 40.1616C104.992 37.5186 103.185 33.4415 103.354 29.3925C103.439 24.8094 106.037 20.3949 109.962 18.0049ZM115.807 21.604C114.085 21.8851 112.475 22.8411 111.374 24.1627C108.719 27.3118 108.719 32.3449 111.402 35.4378C112.927 37.2655 115.384 38.2777 117.756 38.0247C119.987 37.7997 122.048 36.3938 123.149 34.4537C125.013 31.164 124.703 26.6933 122.189 23.8253C120.636 22.0538 118.151 21.1822 115.807 21.604Z" fill="#ABABAB"/>
<path d="M147.265 19.4389C150.654 16.2897 155.878 15.2212 160.227 16.8802C164.35 18.4266 166.976 22.335 168.303 26.3558C162.175 28.8864 156.076 31.3889 149.948 33.9195C150.795 35.5222 152.094 36.9843 153.845 37.5748C156.302 38.4464 159.239 38.1371 161.3 36.5063C162.119 35.8877 162.768 35.0723 163.39 34.285C164.943 35.3254 166.496 36.3376 168.049 37.378C165.846 40.6677 162.147 42.9734 158.165 43.3389C153.76 43.8731 149.073 42.1861 146.22 38.7557C141.533 33.3571 141.985 24.3032 147.265 19.4389ZM150.287 24.6406C149.327 26.0184 148.931 27.7055 148.96 29.3644C153.054 27.6774 157.149 25.9903 161.243 24.2751C160.566 22.7005 158.928 21.7445 157.262 21.4915C154.579 21.0135 151.783 22.4475 150.287 24.6406Z" fill="#ABABAB"/>
</g>
<defs>
<clipPath id="clip0_0_613">
<rect width="168.303" height="54.6985" fill="white" transform="translate(0 0.988831)"/>
</clipPath>
</defs>
</svg>
