<svg width="132" height="51" viewBox="0 0 132 51" fill="none" xmlns="http://www.w3.org/2000/svg">
<path d="M104.461 15.9018V0H107.705V13.6696C106.807 14.121 105.584 14.9738 104.461 15.9018ZM98.82 20.6925C99.8184 19.4885 100.842 18.2846 102.065 17.2563V0H98.82V20.6925ZM61.232 33.3337C61.232 37.5725 62.9043 41.6106 65.9742 44.6957C69.0192 47.7557 73.0376 49.4612 77.2806 49.4612C79.0776 49.4612 80.9245 49.085 82.2224 48.4329V45.1722C80.6999 45.8244 78.853 46.2006 77.2806 46.2006C70.342 46.2006 64.5016 40.3315 64.5016 33.3587V30.4242C64.5016 23.4514 70.367 17.5823 77.2806 17.5823C80.7249 17.5823 83.9446 18.9116 86.3406 21.3195C88.7367 23.7273 90.0595 26.9629 90.0595 30.4242V49.4863H93.3041V29.7971C93.1045 25.6336 91.3324 21.7459 88.3373 18.8364C85.3173 15.9269 81.3988 14.3217 77.2806 14.3217C73.0625 14.3217 69.0441 16.0022 65.9742 19.0872C62.9292 22.1472 61.232 26.1854 61.232 30.4493V33.3337ZM109.802 25.5081C111.275 24.0283 113.171 23.2006 115.043 23.2006C119.062 23.2006 122.182 26.3609 122.182 30.374V33.3086C122.182 37.3467 119.037 40.482 115.043 40.482C113.097 40.482 111.225 39.4034 109.752 37.4721C108.454 35.7666 107.606 33.434 107.481 31.3522L104.86 34.6128C105.384 37.0708 106.657 39.4536 108.479 41.109C110.351 42.8146 112.697 43.7677 115.043 43.7677C120.784 43.7677 125.451 39.0774 125.451 33.3337V30.3991C125.451 27.6652 124.353 25.0567 122.356 23.0752C120.36 21.0687 117.764 19.9651 115.043 19.9651C113.321 19.9651 110.601 20.5921 107.356 23.5267C106.482 24.4046 104.436 26.4613 103.188 27.916C101.091 30.2235 98.0713 33.6597 95.4756 37.1461V42.2377C98.3458 38.5256 99.9931 36.4438 102.714 33.3086C105.11 30.4493 108.105 27.0131 109.802 25.5081ZM33.1283 19.3631V15.5005C30.1832 13.9204 26.9885 13.2181 22.7454 13.2181C18.4026 13.2181 14.2844 14.8233 11.1645 17.7077C8.01972 20.6172 6.29756 24.4296 6.29756 28.4929V29.5463C6.29756 37.9738 13.0115 44.8211 21.2978 44.8211C28.0118 44.8211 30.7822 42.6139 31.4811 41.9116V32.1047H20.4992V35.3653H28.4361V40.2813H28.4111C27.3878 40.6826 25.2663 41.5354 21.2978 41.5354C18.153 41.5354 15.1829 40.3064 12.9865 38.049C10.7652 35.7917 9.56717 32.7819 9.56717 29.5212V28.4678C9.56717 21.9716 15.6072 16.4536 22.7704 16.4536C27.6873 16.4787 30.6325 17.3064 33.1283 19.3631ZM56.7893 23.2006C58.0123 23.2006 59.0606 23.4013 59.9092 23.8026C60.3085 22.7993 60.7328 21.9465 61.3318 20.9433C60.4583 20.3162 58.3368 19.9149 56.7893 19.9149C50.8741 19.9149 46.4064 24.4046 46.4064 30.374V49.4361H49.6511V30.374C49.6511 26.1603 52.5713 23.2006 56.7893 23.2006ZM0.65686 28.4929V29.5463C0.65686 35.2148 2.80332 40.482 6.67195 44.4198C10.5406 48.3326 15.732 50.4896 21.2729 50.4896C25.7405 50.4896 29.684 49.4863 33.0285 47.4798C35.774 45.8244 36.997 44.169 37.0968 44.0185V26.4613H20.4992V29.7219H33.8521V43.0403C32.2797 44.6205 28.5609 47.254 21.2978 47.254C16.5557 47.254 12.1629 45.4231 8.91824 42.1123C5.69855 38.8266 3.92647 34.362 3.92647 29.5714V28.518C3.92647 23.9782 5.94814 19.4634 9.4923 16.1276C13.1113 12.7165 17.8286 10.8353 22.7704 10.8353C27.3878 10.8353 30.5825 11.5376 33.1533 13.1178V9.43074C30.4577 8.27698 27.238 7.77535 22.7454 7.77535C10.7652 7.77535 0.65686 17.2563 0.65686 28.4929ZM87.6385 49.4361V30.374C87.6385 24.5049 83.071 19.9149 77.2306 19.9149C74.5101 19.9149 71.9144 21.0185 69.9177 23.0251C67.921 25.0316 66.8228 27.6401 66.8228 30.3489V33.2835C66.8228 38.952 71.5899 43.7175 77.2057 43.7175C78.7531 43.7175 80.8497 43.3413 82.1475 42.2628V38.8767C80.8746 39.9051 79.0526 40.507 77.2057 40.507C73.2123 40.507 70.0674 37.3467 70.0674 33.3337V30.3991C70.0674 26.3609 73.2123 23.2257 77.2057 23.2257C81.2241 23.2257 84.3439 26.386 84.3439 30.3991V49.4612H87.6385V49.4361ZM56.7893 17.5322C58.9857 17.5322 60.9075 18.0087 62.6297 18.9869C63.4284 17.9585 64.252 17.1559 64.876 16.5289C63.054 15.1243 59.9591 14.2715 56.8143 14.2715C52.2967 14.2715 48.2035 15.9018 45.2833 18.8866C42.3881 21.8211 40.7907 25.9095 40.7907 30.3991V49.4612H44.0354V30.3991C44.0104 22.8244 49.2518 17.5322 56.7893 17.5322ZM126.35 19.0371C123.305 15.9771 119.286 14.2715 115.043 14.2715C111.948 14.2715 108.854 15.4253 107.131 16.579C103.587 18.9367 100.692 21.5201 95.4506 28.3173V33.2082C99.8933 27.3893 104.086 22.8244 107.281 20.2911C109.378 18.6107 112.348 17.5572 115.043 17.5572C121.982 17.5572 127.822 23.4514 127.822 30.3991V33.3337C127.822 36.7699 126.474 40.0054 124.028 42.4383C121.607 44.8462 118.413 46.1755 115.043 46.1755C109.353 46.1755 104.336 42.2377 102.988 36.8953L100.692 39.6793C102.364 45.2977 108.404 49.4361 115.043 49.4361C119.286 49.4361 123.28 47.7306 126.35 44.6706C129.395 41.5856 131.092 37.5725 131.092 33.3086V30.374C131.092 26.1352 129.395 22.097 126.35 19.0371Z" fill="#ABABAB"/>
</svg>
