<svg width="152" height="41" viewBox="0 0 152 41" fill="none" xmlns="http://www.w3.org/2000/svg">
<g clip-path="url(#clip0_0_624)">
<path d="M143.28 19.5903L151.376 40.8832C148.99 40.5447 146.605 40.1207 144.177 39.7387L139.617 27.9735L134.931 38.7675C132.631 38.3854 130.372 38.2582 128.072 37.9616L136.294 19.3372L128.836 0.247986H135.739L139.914 10.9134L144.389 0.247986H151.375L143.28 19.5903ZM123.386 0.247986H117.122V37.1583C119.167 37.2857 121.297 37.3696 123.386 37.6229V0.247986ZM111.711 36.7344C106.002 36.3537 100.292 36.0166 94.4558 35.8879V0.248149H100.846V29.8778C104.511 29.9619 108.174 30.2572 111.711 30.4264V36.7344ZM87.6375 14.6829V21.0315H78.9037V35.4651H72.5994V0.247986H90.4938V6.59654H78.905V14.6831H87.6388L87.6375 14.6829ZM61.8612 6.59654V35.8038C59.7303 35.8038 57.5585 35.8038 55.4697 35.8879V6.59654H48.8656V0.247986H68.5062V6.59654H61.8612ZM41.9641 21.3689C39.1527 21.3689 35.8287 21.3689 33.4428 21.4976V30.9357C37.1921 30.6811 40.9414 30.3857 44.7329 30.2585V36.3538L27.0526 37.7516V0.247986H44.7317V6.59654H33.4426V15.1475C35.9145 15.1475 39.7061 15.0203 41.9638 15.0203V21.3702L41.9641 21.3689ZM6.55665 17.8132V39.9933C4.25798 40.2479 2.21148 40.5445 0.0395508 40.8832V0.247986H6.13264L14.44 23.3181V0.247986H20.8315V38.2582C18.5736 38.6402 16.2723 38.7675 13.8441 39.1048L6.55665 17.8132Z" fill="#ABABAB"/>
</g>
<defs>
<clipPath id="clip0_0_624">
<rect width="151.336" height="40.7149" fill="white" transform="translate(0.0395508 0.207275)"/>
</clipPath>
</defs>
</svg>
