<svg width="678" height="250" viewBox="0 0 678 250" fill="none" xmlns="http://www.w3.org/2000/svg">
<path d="M0.664903 14.7404L5.6414 24.3778C113.907 1.46229 308.238 7.63708 328.144 46.187C342.363 73.7226 259.758 97.1947 279.664 135.745C293.796 159.837 409.575 164.576 418.106 181.097C423.083 190.735 405.097 201.766 412.918 216.91C438.511 266.474 689.45 251.371 677.364 227.965C668.264 210.343 466.834 236.154 447.639 198.981C439.108 182.46 448.851 181.672 444.277 172.815C434.324 153.54 320.591 149.489 306.373 121.953C293.576 97.1709 363.903 69.5755 348.973 40.6628C331.2 6.24342 131.154 -14.2744 0.664903 14.7404Z" fill="#F2CED4"/>
</svg>
